<svg xmlns="http://www.w3.org/2000/svg" xmlns:xlink="http://www.w3.org/1999/xlink" viewBox="0 0 100 97.5"><defs><style>.a{fill:url(#a);}.b{fill:#d8a1ff;}</style><radialGradient id="a" cx="-438.94" cy="-141.67" r="0.03" gradientTransform="matrix(2291.67, 0, 0, -2218.75, 1005937.33, -314316.44)" gradientUnits="userSpaceOnUse"><stop offset="0" stop-color="#442f55" stop-opacity="0.98"/><stop offset="1" stop-color="#12002c"/></radialGradient></defs><title>ae</title><path class="a" d="M4.18,4.21H95.85V93.37H4.18Z" transform="translate(-0.01 -0.04)"/><path class="b" d="M4.18,4.21H95.85V93.37H4.18ZM0,97.54H100V0H0ZM70.76,47A18.43,18.43,0,0,0,73.85,47c0-.29.08-.5.08-.71,0-2.25-1.08-6.42-5.42-6.42-4,0-5.71,3.5-6.13,7.21h8.38Zm-8.46,5.71c.08,5.63,2.75,9.42,9.08,9.42a16.31,16.31,0,0,0,6.79-1.29c.29-.12.5-.08.5.29v5.21a.88.88,0,0,1-.42.83,18.89,18.89,0,0,1-8.38,1.58c-11,0-15.12-8.12-15.12-17.17,0-9.83,5.08-17.87,14-17.87s12.25,7.62,12.25,13.83A21.07,21.07,0,0,1,80.72,52a.62.62,0,0,1-.54.54,60.32,60.32,0,0,1-7,.29H62.31ZM40,48.5c-1.17-4.63-4-14.71-5-19.58h-.08C34,33.79,31.68,42,30,48.5ZM28.26,55.25,25,67.71c-.08.33-.21.46-.63.46H18.22c-.42,0-.5-.12-.42-.62L29.64,26.16a12.77,12.77,0,0,0,.42-3.42c0-.29.12-.42.33-.42h8.75c.29,0,.42.08.5.42L52.89,67.62c.08.33,0,.54-.33.54H45.68a.56.56,0,0,1-.63-.42l-3.42-12.5H28.26Z" transform="translate(-0.01 -0.04)"/></svg>