<svg xmlns="http://www.w3.org/2000/svg" xmlns:xlink="http://www.w3.org/1999/xlink" viewBox="0 0 100 97.5"><defs><style>.a{fill:url(#a);}.b{fill:#ff7f18;}</style><radialGradient id="a" cx="-438.94" cy="-141.67" r="0.03" gradientTransform="matrix(2291.67, 0, 0, -2218.75, 1005937.33, -314316.44)" gradientUnits="userSpaceOnUse"><stop offset="0" stop-color="#423325" stop-opacity="0.98"/><stop offset="1" stop-color="#1c0a00"/></radialGradient></defs><title>ai</title><path class="a" d="M4.18,4.21H95.85V93.37H4.18Z" transform="translate(-0.01 -0.04)"/><path class="b" d="M4.18,4.21H95.85V93.37H4.18ZM0,97.54H100V0H0Zm65.5-62.75c0-.33.12-.5.5-.5h6.54c.33,0,.5.12.5.5V67.66c0,.33-.08.5-.5.5H66.1c-.42,0-.54-.21-.54-.54V34.79h0Zm-.46-9.46a4.25,4.25,0,0,1,8.5,0,4,4,0,0,1-4.33,4.25A3.92,3.92,0,0,1,65.06,25.33ZM46.31,48.5c-1.17-4.63-3.92-14.71-5-19.58h-.08C40.39,33.79,38.18,42,36.43,48.5ZM34.72,55.25l-3.29,12.5c-.08.33-.21.42-.62.42H24.68c-.42,0-.5-.12-.42-.62L36.1,26.12a13.5,13.5,0,0,0,.42-3.46c0-.29.12-.42.33-.42H45.6c.29,0,.42.08.5.42l13.25,45c.08.33,0,.54-.33.54H52.1c-.33,0-.54-.08-.62-.37L48.06,55.25H34.72Z" transform="translate(-0.01 -0.04)"/></svg>