<svg xmlns="http://www.w3.org/2000/svg" xmlns:xlink="http://www.w3.org/1999/xlink" viewBox="0 0 94.49 94.48"><defs><style>.a{fill:none;}.b{fill:#fff;}.c{fill:#a046c0;}.d{clip-path:url(#a);}.e{fill:url(#b);}.f{opacity:0.8;}.g{clip-path:url(#c);}.h{fill:#6c4189;}</style><clipPath id="a" transform="translate(-3.04 -2.03)"><polygon class="a" points="101.3 2.71 0.13 76.63 -0.98 -16.49 101.3 -16.49 101.3 2.71"/></clipPath><linearGradient id="b" x1="4.72" y1="94.87" x2="54.79" y2="44.8" gradientUnits="userSpaceOnUse"><stop offset="0" stop-color="#a943ac" stop-opacity="0.98"/><stop offset="1" stop-color="#a24bd2" stop-opacity="0.98"/></linearGradient><clipPath id="c" transform="translate(-3.04 -2.03)"><polygon class="a" points="109.56 59.66 32.74 -0.19 78.3 -18.95 131 2.49 109.56 59.66"/></clipPath></defs><title>ax</title><rect class="b" x="29.7" y="50.71" width="57.62" height="37.52"/><path class="c" d="M97.31,8.57A6.29,6.29,0,0,0,90.8,2c-20.84.08-41.68.05-62.52.07-1.52,0-1.52,0-1.52,1.51q0,27.13-.07,54.25,0,18.48,0,37c0,.44,0,.87,0,1.46H91.18a5.67,5.67,0,0,0,6.06-6.08C97.24,63,97.2,35.77,97.31,8.57ZM54.38,88.28c-.28,0-.62-.47-.8-.79-2.25-4.07-4.49-8.14-6.68-12.23a1.57,1.57,0,0,0-1.72-1c-1,.09-1.92,0-3,0v14h-6c0-.39-.06-.75-.06-1.11q0-15.46,0-30.93c0-.88.17-1.26,1.15-1.23,4.35.1,8.71,0,13.05.24a10.91,10.91,0,0,1,7.58,3.34C61,61.86,61.4,70,54.65,72.86c-.68.29-1.4.51-2.18.79l8.8,14.67C58.81,88.31,56.59,88.34,54.38,88.28ZM82.44,72.76a18.06,18.06,0,0,1-8.07,1.86c-1.59.05-3.19,0-5,0V88.24h-6c0-.44-.05-.84-.05-1.24,0-10.23,0-20.47,0-30.7,0-1.1.35-1.37,1.39-1.35,4.16.11,8.33.07,12.49.22A12.24,12.24,0,0,1,83,56.94C88.14,60,88.39,69.6,82.44,72.76ZM19.34,2.07H9.18A5.77,5.77,0,0,0,3.09,8.17q0,41,0,82.07a5.68,5.68,0,0,0,6,6c3.46,0,6.92,0,10.38,0,.36,0,.72,0,1.1-.06V2.07ZM53.92,64.44a3.81,3.81,0,0,0-2.8-3.74c-2.92-1-5.93-.42-8.94-.59v9c2.48,0,4.85,0,7.22,0a5.38,5.38,0,0,0,1.82-.48A4,4,0,0,0,53.92,64.44ZM77.14,60.5c-2.51-.36-5.07-.34-7.67-.48v9.65c2.69-.23,5.33-.25,7.89-.72,2.36-.43,3.42-2.12,3.37-4.43A3.89,3.89,0,0,0,77.14,60.5Z" transform="translate(-3.04 -2.03)"/><g class="d"><path class="e" d="M97.31,8.79A6.29,6.29,0,0,0,90.8,2.25c-20.84.08-41.68.05-62.52.07-1.52,0-1.52,0-1.52,1.51q0,27.13-.07,54.25,0,18.48,0,37c0,.44,0,.87,0,1.46H91.18a5.67,5.67,0,0,0,6.06-6.08C97.24,63.2,97.2,36,97.31,8.79ZM54.38,88.5c-.28,0-.62-.47-.8-.79-2.25-4.07-4.49-8.14-6.68-12.23a1.57,1.57,0,0,0-1.72-1c-1,.09-1.92,0-3,0v14h-6c0-.39-.06-.75-.06-1.11q0-15.46,0-30.93c0-.88.17-1.26,1.15-1.23,4.35.1,8.71,0,13.05.24a10.91,10.91,0,0,1,7.58,3.34C61,62.08,61.4,70.2,54.65,73.08c-.68.29-1.4.51-2.18.79l8.8,14.67C58.81,88.54,56.59,88.57,54.38,88.5ZM82.44,73a18.06,18.06,0,0,1-8.07,1.86c-1.59.05-3.19,0-5,0V88.46h-6c0-.44-.05-.84-.05-1.24,0-10.23,0-20.47,0-30.7,0-1.1.35-1.37,1.39-1.35,4.16.11,8.33.07,12.49.22A12.24,12.24,0,0,1,83,57.16C88.14,60.19,88.39,69.82,82.44,73ZM19.34,2.29H9.18A5.77,5.77,0,0,0,3.09,8.39q0,41,0,82.07a5.68,5.68,0,0,0,6,6c3.46,0,6.92,0,10.38,0,.36,0,.72,0,1.1-.06V2.29ZM53.92,64.66a3.81,3.81,0,0,0-2.8-3.74c-2.92-1-5.93-.42-8.94-.59v9c2.48,0,4.85,0,7.22,0a5.38,5.38,0,0,0,1.82-.48A4,4,0,0,0,53.92,64.66Zm23.21-3.94c-2.51-.36-5.07-.34-7.67-.48v9.65c2.69-.23,5.33-.25,7.89-.72,2.36-.43,3.42-2.12,3.37-4.43A3.89,3.89,0,0,0,77.14,60.72Z" transform="translate(-3.04 -2.03)"/></g><g class="f"><g class="g"><path class="h" d="M97.53,8.57A6.29,6.29,0,0,0,91,2c-20.84.08-41.68.05-62.52.07C27,2.1,27,2.1,27,3.6q0,27.13-.07,54.25,0,18.48,0,37c0,.44,0,.87,0,1.46H91.41a5.67,5.67,0,0,0,6.06-6.08C97.47,63,97.43,35.77,97.53,8.57ZM54.6,88.28c-.28,0-.62-.47-.8-.79-2.25-4.07-4.49-8.14-6.68-12.23a1.57,1.57,0,0,0-1.72-1c-1,.09-1.92,0-3,0v14h-6c0-.39-.06-.75-.06-1.11q0-15.46,0-30.93c0-.88.17-1.26,1.15-1.23,4.35.1,8.71,0,13.05.24a10.91,10.91,0,0,1,7.58,3.34c3.18,3.33,3.57,11.44-3.18,14.32-.68.29-1.4.51-2.18.79l8.8,14.67C59,88.31,56.82,88.34,54.6,88.28ZM82.66,72.76a18.06,18.06,0,0,1-8.07,1.86c-1.59.05-3.19,0-5,0V88.24h-6c0-.44-.05-.84-.05-1.24,0-10.23,0-20.47,0-30.7,0-1.1.35-1.37,1.39-1.35,4.16.11,8.33.07,12.49.22a12.24,12.24,0,0,1,5.81,1.77C88.36,60,88.61,69.6,82.66,72.76ZM19.56,2.07H9.4A5.77,5.77,0,0,0,3.31,8.17q0,41,0,82.07a5.68,5.68,0,0,0,6,6c3.46,0,6.92,0,10.38,0,.36,0,.72,0,1.1-.06V2.07ZM54.15,64.44a3.81,3.81,0,0,0-2.8-3.74c-2.92-1-5.93-.42-8.94-.59v9c2.48,0,4.85,0,7.22,0a5.38,5.38,0,0,0,1.82-.48A4,4,0,0,0,54.15,64.44ZM77.36,60.5c-2.51-.36-5.07-.34-7.67-.48v9.65c2.69-.23,5.33-.25,7.89-.72,2.36-.43,3.42-2.12,3.37-4.43A3.89,3.89,0,0,0,77.36,60.5Z" transform="translate(-3.04 -2.03)"/></g></g></svg>