<svg xmlns="http://www.w3.org/2000/svg" xmlns:xlink="http://www.w3.org/1999/xlink" viewBox="0 0 100 97.5"><defs><style>.a{fill:url(#a);}.b{fill:#ff408c;}</style><radialGradient id="a" cx="-438.94" cy="-141.67" r="0.03" gradientTransform="matrix(2291.67, 0, 0, -2218.75, 1005937.33, -314316.44)" gradientUnits="userSpaceOnUse"><stop offset="0" stop-color="#4b2b36" stop-opacity="0.98"/><stop offset="1" stop-color="#250012"/></radialGradient></defs><title>id</title><path class="a" d="M4.18,4.21H95.85V93.37H4.18Z" transform="translate(-0.01 -0.04)"/><path class="b" d="M4.18,4.21H95.85V93.37H4.18ZM0,97.54H100V0H0Zm63.25-57a5.93,5.93,0,0,0-2.46-.42c-5.37,0-9.12,4.13-9.12,11,0,7.83,3.83,11,8.63,11a7.49,7.49,0,0,0,3-.5Zm-2.21-6.79a19.2,19.2,0,0,1,2.21.08V22.75a.39.39,0,0,1,.42-.42h6.75c.33,0,.42.12.42.33v39a31.42,31.42,0,0,0,.21,4.21c0,.29-.08.33-.37.5a25.47,25.47,0,0,1-10.92,2.46C50.56,68.79,44,63.08,44,51.46c0-10,6.54-17.71,17.08-17.71ZM36.6,67.62c0,.42-.08.54-.54.54H29.64c-.42,0-.54-.21-.54-.54V22.87c0-.42.21-.54.54-.54H36.1c.33,0,.5.12.5.5Z" transform="translate(-0.01 -0.04)"/></svg>