<?xml version="1.0" encoding="utf-8"?>
<!-- Generator: Adobe Illustrator 16.0.4, SVG Export Plug-In . SVG Version: 6.00 Build 0)  -->
<!DOCTYPE svg PUBLIC "-//W3C//DTD SVG 1.1//EN" "http://www.w3.org/Graphics/SVG/1.1/DTD/svg11.dtd">
<svg version="1.1" id="Layer_1" xmlns="http://www.w3.org/2000/svg" xmlns:xlink="http://www.w3.org/1999/xlink" x="0px" y="0px"
	 width="512px" height="512px" viewBox="0 0 512 512" enable-background="new 0 0 512 512" xml:space="preserve">
<path d="M255.5,1C114.943,1,1,114.943,1,255.5S114.943,510,255.5,510S510,396.057,510,255.5S396.057,1,255.5,1z M205.408,349
	l21.486-100.032c0.598-2.387,1.092-5.254,1.492-7.939c0.396-2.686,0.597-5.485,0.597-8.073c0-5.171-0.896-9.58-2.686-13.063
	c-1.79-3.479-4.178-6.355-7.162-8.546c-2.983-2.187-6.416-3.797-10.296-4.795c-3.879-0.993-7.907-1.502-12.086-1.502
	c-6.766,0-13.33,1.487-19.695,4.471c-6.369,2.984-12.234,7.21-17.605,12.68c-5.372,5.474-10.049,12.136-14.025,19.993
	c-3.982,7.862-6.967,17.324-8.953,27.069L119.465,349h-18.502l32.826-154h17.309l-5.372,28h0.597
	c5.768-9,13.476-17.486,23.127-23.753c9.647-6.267,20.241-9.713,31.781-9.713c6.762,0,12.981,0.641,18.651,2.231
	c5.67,1.595,10.594,3.951,14.771,7.233s7.409,7.524,9.698,12.792c2.285,5.274,3.432,11.572,3.432,18.93
	c0,4.178-0.797,10.898-2.387,18.853L224.209,349H205.408z M397.846,239.654c-0.199,3.581-0.596,7.425-1.193,10.209L376.062,349
	h-34.02l19.695-95.854c0.596-2.583,1.143-5.402,1.641-7.79c0.494-2.388,0.746-4.837,0.746-7.028c0-1.194-0.051-3.113-0.148-5.604
	c-0.104-2.485-0.85-5.012-2.238-7.501c-1.395-2.485-3.73-4.646-7.014-6.437c-3.281-1.791-8.01-2.696-14.174-2.696
	c-6.766,0-12.785,1.441-18.055,4.322c-5.273,2.886-9.996,6.413-14.174,10.591c-3.982,3.982-7.414,8.905-10.297,14.771
	c-2.885,5.871-5.025,12.647-6.416,19.011L274.303,349h-34.02l44.166-213h34.018l-16.711,80h0.598
	c5.768-8,13.229-14.434,22.381-19.208c9.148-4.775,18.6-7.366,28.35-7.366c15.518,0,26.904,3.582,34.168,10.939
	c7.26,7.362,10.893,17.257,10.893,29.791C398.145,232.944,398.043,236.073,397.846,239.654z"/>
</svg>
