<svg xmlns="http://www.w3.org/2000/svg" xmlns:xlink="http://www.w3.org/1999/xlink" viewBox="0 0 100 97.5"><defs><style>.a{fill:url(#a);}.b{fill:#e579ff;}</style><radialGradient id="a" cx="-438.94" cy="-141.67" r="0.03" gradientTransform="matrix(2291.67, 0, 0, -2218.75, 1005937.33, -314316.44)" gradientUnits="userSpaceOnUse"><stop offset="0" stop-color="#4b2d4f" stop-opacity="0.98"/><stop offset="1" stop-color="#180024"/></radialGradient></defs><title>pr</title><path class="a" d="M4.18,4.21H95.85V93.37H4.18Z" transform="translate(-0.01 -0.04)"/><path class="b" d="M4.18,4.21H95.85V93.37H4.18ZM0,97.54H100V0H0ZM60,41.21c0-.5,0-1.71-.21-4,0-.33,0-.42.33-.54a43.26,43.26,0,0,1,15.25-2.87c.33,0,.5.08.5.42v6c0,.33-.12.42-.46.42-2.63-.12-6.42.21-7.88.83V67.71c0,.33-.12.5-.5.5H60.51c-.33,0-.5-.12-.5-.5V41.21ZM33.35,45c1,.08,1.71.08,3.38.08,4.88,0,9.46-1.71,9.46-8.33,0-5.29-3.25-8-8.83-8-1.67,0-3.25.08-4,.12V45ZM26,22.87c0-.29.08-.5.42-.5,2.67-.12,6.58-.21,10.71-.21,11.54,0,16.58,6.33,16.58,14.46,0,10.58-7.67,15.12-17.08,15.12-1.58,0-2.13-.08-3.25-.08v16c0,.33-.12.5-.5.5H26.43c-.33,0-.5-.12-.5-.5V22.87h0Z" transform="translate(-0.01 -0.04)"/></svg>