<svg xmlns="http://www.w3.org/2000/svg" xmlns:xlink="http://www.w3.org/1999/xlink" viewBox="0 0 100 97.5"><defs><style>.a{fill:url(#a);}.b{fill:#31c5f0;}</style><radialGradient id="a" cx="-438.94" cy="-141.67" r="0.03" gradientTransform="matrix(2291.67, 0, 0, -2218.75, 1005937.33, -314316.44)" gradientUnits="userSpaceOnUse"><stop offset="0" stop-color="#34364e" stop-opacity="0.98"/><stop offset="1" stop-color="#0c0824"/></radialGradient></defs><title>ps</title><path class="a" d="M4.18,4.21H95.85V93.37H4.18Z" transform="translate(-0.01 -0.04)"/><path class="b" d="M4.18,4.21H95.85V93.37H4.18ZM0,97.54H100V0H0ZM67.43,40c-3.29,0-4.42,1.67-4.42,3s.75,2.54,5.17,4.83c6.54,3.17,8.58,6.21,8.58,10.67,0,6.67-5.08,10.25-12,10.25A18.13,18.13,0,0,1,56.26,67c-.29-.12-.33-.33-.33-.67V60.25c0-.42.21-.54.5-.33a15.47,15.47,0,0,0,8.37,2.46c3.29,0,4.67-1.37,4.67-3.25,0-1.5-1-2.83-5.17-5-5.92-2.83-8.37-5.71-8.37-10.5,0-5.38,4.21-9.83,11.5-9.83A19.16,19.16,0,0,1,74.89,35a.92.92,0,0,1,.42.83V41.5c0,.33-.21.54-.63.42A14.07,14.07,0,0,0,67.43,40ZM31.6,45c1,.08,1.71.08,3.38.08,4.88,0,9.46-1.71,9.46-8.33,0-5.29-3.29-8-8.83-8-1.67,0-3.25.08-4,.12ZM24.18,22.87c0-.29.58-.5.92-.5,2.67-.12,6.63-.21,10.75-.21,11.54,0,16,6.33,16,14.42,0,10.58-7.67,15.12-17.08,15.12-1.58,0-2.12-.08-3.25-.08v16c0,.33-.12.5-.5.5H24.68c-.33,0-.5-.12-.5-.5V22.87Z" transform="translate(-0.01 -0.04)"/></svg>