<svg xmlns="http://www.w3.org/2000/svg" viewBox="0 0 94.76 90.37"><defs><style>.a{fill:#e3432f;}</style></defs><title>sub</title><path class="a" d="M44.38,92.42A35.89,35.89,0,1,1,80.52,56.76,36,36,0,0,1,44.38,92.42Zm24.69-37c0-4.25.06-8.08-.06-11.9a2.65,2.65,0,0,0-1.32-1.67q-10.95-6.37-22-12.58a2.94,2.94,0,0,0-2.45,0q-11,6.19-22,12.6A3,3,0,0,0,20,44c-.14,3.26,0,6.54-.08,9.8a1.84,1.84,0,0,0,1.55,2.11c6.44,2,12.85,4,19.27,6L54,66.11c-3.13,1.83-5.85,3.5-8.66,5a2.87,2.87,0,0,1-2.28-.26c-3.93-2.14-7.79-4.38-11.68-6.58-1.26-.72-2.84-1.15-2.68-3.13,0-.21-.4-.57-.68-.67-2.59-.88-5.2-1.71-8.1-2.64,0,4,.05,7.59,0,11.2a2.48,2.48,0,0,0,1.46,2.52Q32.22,77.67,43,83.91a2.55,2.55,0,0,0,2.92.07c7.24-4.21,14.53-8.33,21.74-12.57A3.23,3.23,0,0,0,69,69.15c.15-3.19,0-6.39.07-9.59a1.86,1.86,0,0,0-1.52-2.14C61.74,55.65,55.94,53.79,50.14,52L34.78,47.12c3-1.73,5.61-3.34,8.32-4.69a3.55,3.55,0,0,1,2.84,0c3.75,2,7.42,4.18,11.05,6.38,1.35.82,3.35,1.14,3.25,3.42,0,.19.48.49.78.59C63.56,53.69,66.12,54.49,69.07,55.42Z" transform="translate(-2.63 -2.6)"/><path class="a" d="M78.87,83.82A9,9,0,0,1,88,74.62,9.18,9.18,0,1,1,88,93,9,9,0,0,1,78.87,83.82Z" transform="translate(-2.63 -2.6)"/><path class="a" d="M44.22,14a5.73,5.73,0,0,1-5.69-5.69A5.86,5.86,0,0,1,44.46,2.6a5.77,5.77,0,0,1,5.76,5.86A5.64,5.64,0,0,1,44.22,14Z" transform="translate(-2.63 -2.6)"/><path class="a" d="M10.62,83.82a3.73,3.73,0,0,1-4,3.9,4,4,0,0,1-4-3.85,4.08,4.08,0,0,1,4-4.08A3.88,3.88,0,0,1,10.62,83.82Z" transform="translate(-2.63 -2.6)"/></svg>